<?xml version="1.0" encoding="utf-8"?>
<!-- Generator: Adobe Illustrator 15.0.0, SVG Export Plug-In . SVG Version: 6.00 Build 0)  -->
<!DOCTYPE svg PUBLIC "-//W3C//DTD SVG 1.1//EN" "http://www.w3.org/Graphics/SVG/1.1/DTD/svg11.dtd">
<svg version="1.1" id="Layer_1" xmlns="http://www.w3.org/2000/svg" xmlns:xlink="http://www.w3.org/1999/xlink" x="0px" y="0px"
	 width="27px" height="27px" viewBox="0 0 27 27" enable-background="new 0 0 27 27" xml:space="preserve">
<rect fill="#FFFFFF" width="27" height="27"/>
<path fill="#CCCCCC" d="M1,1v25h25V1H1z M8.552,23.141c-1.252,1.398-2.122,0.302-3.775,1.573c-0.221,0.169-0.462,0.244-0.691,0.244
	c-0.573,0-1.089-0.468-1.089-1.1c0-0.208,0.06-0.435,0.189-0.666c0.933-1.713-0.122-2.512,1.097-3.869l7.542-8.398l1.424,1.273
	l-7.439,8.263c-0.3,0.333-0.182,1.274-0.345,1.802c0.506-0.222,1.469-0.195,1.769-0.53l7.441-8.26l1.423,1.271L8.552,23.141z
	 M23.26,6.817l-3.346,3.657c-0.701,0.787-0.636,1.992,0.149,2.698l-1.271,1.421l-7.119-6.365l1.273-1.422
	c0.784,0.703,1.991,0.636,2.696-0.153l3.344-3.66c0.565-0.631,1.349-0.954,2.137-0.954c1.591,0,2.879,1.296,2.879,2.862
	C24.003,5.593,23.743,6.273,23.26,6.817z"/>
</svg>
